<svg version="1.1" id="Layer_1" xmlns="http://www.w3.org/2000/svg" xmlns:xlink="http://www.w3.org/1999/xlink" x="0px" y="0px"
	 width="100%" viewBox="0 0 703 255" enable-background="new 0 0 703 255" xml:space="preserve">
<path fill="#FFFFFF" opacity="1.000000" stroke="none" 
	d="
M482.000000,256.000000 
	C321.333344,256.000000 161.166672,256.000000 1.000000,256.000000 
	C1.000000,171.000000 1.000000,86.000000 1.000000,1.000000 
	C235.333328,1.000000 469.666656,1.000000 704.000000,1.000000 
	C704.000000,86.000000 704.000000,171.000000 704.000000,256.000000 
	C630.166687,256.000000 556.333313,256.000000 482.000000,256.000000 
M179.328552,159.033524 
	C182.881271,157.103165 186.434006,155.172821 189.985779,153.242981 
	C189.985779,153.670349 190.021255,154.497681 189.979675,155.321136 
	C189.796921,158.939270 192.318802,159.326187 194.951004,159.355560 
	C197.716904,159.386429 199.836349,158.603912 199.808640,155.142288 
	C199.695312,140.986145 199.822617,126.826256 199.538849,112.674210 
	C199.422867,106.889633 197.595413,101.560478 192.791946,97.678757 
	C182.493408,89.356438 162.710815,93.540352 155.655518,99.293396 
	C155.151306,99.704536 154.447128,100.299049 154.439850,100.816765 
	C154.408432,103.055267 154.601761,105.296913 154.713333,107.537422 
	C156.537689,107.395462 158.480118,107.602135 160.159897,107.033264 
	C162.978149,106.078857 165.534821,104.330322 168.366455,103.440773 
	C182.570358,98.978630 191.156189,106.022484 188.388229,120.255898 
	C186.356140,120.255898 184.153671,119.916878 182.095047,120.317360 
	C174.980438,121.701447 167.588882,122.505760 160.919785,125.110558 
	C153.508759,128.005142 150.149597,136.060165 151.188614,144.159576 
	C152.153595,151.681808 157.237106,157.563843 165.232071,159.078049 
	C169.523987,159.890900 174.089111,159.261337 179.328552,159.033524 
M440.949860,159.897552 
	C448.825378,160.739716 455.899323,158.856049 461.924988,153.110199 
	C462.198883,154.161865 462.416626,154.633286 462.431091,155.110855 
	C462.552856,159.134460 465.287384,159.447037 468.348480,159.333221 
	C471.660797,159.210037 472.330566,157.252258 472.297028,154.300827 
	C472.138092,140.303909 472.281769,126.302361 472.012695,112.308327 
	C471.864655,104.608467 468.759979,98.182632 461.210663,95.236168 
	C450.232635,90.951485 439.609589,92.855553 429.518036,98.374672 
	C428.319000,99.030426 426.954865,100.501114 426.816254,101.724266 
	C426.592957,103.694176 426.950073,105.976738 427.876282,107.685905 
	C428.170135,108.228096 431.164642,107.653183 432.737457,107.079750 
	C435.539307,106.058220 438.104614,104.348900 440.935089,103.451553 
	C454.925690,99.016113 463.518860,105.953926 461.298737,119.895729 
	C456.204559,120.251747 451.052429,120.398666 445.958130,121.019951 
	C439.064331,121.860680 432.426544,123.777985 427.853729,129.445496 
	C418.474823,141.069565 424.517487,155.874786 440.949860,159.897552 
M271.946869,122.374306 
	C269.810608,123.286346 267.542633,123.976250 265.561768,125.150421 
	C258.527679,129.319962 255.659058,135.743973 256.429321,143.711273 
	C257.190094,151.580353 262.144104,157.130936 269.997742,159.104309 
	C279.121368,161.396790 287.448090,159.939346 294.550537,152.936615 
	C294.770264,153.677689 295.016388,154.099579 294.998322,154.509811 
	C294.812927,158.715347 297.404297,159.496063 300.833557,159.351868 
	C304.416077,159.201218 305.023743,157.038788 304.994293,153.941010 
	C304.866180,140.447708 305.110260,126.948105 304.806824,113.460068 
	C304.542267,101.701408 298.686890,95.096443 287.311768,93.390594 
	C278.289551,92.037590 269.723633,93.859238 261.855988,98.483688 
	C258.585815,100.405830 258.048615,103.782677 259.560547,106.787537 
	C261.217377,110.080399 263.780640,107.641930 266.017426,106.865456 
	C270.528870,105.299347 274.999817,103.038918 279.644135,102.548470 
	C290.793457,101.371094 296.483246,108.857361 293.586517,119.540802 
	C286.535309,120.413712 279.624054,121.269295 271.946869,122.374306 
M408.021820,99.447510 
	C402.835114,114.022453 397.648407,128.597397 391.995972,144.481125 
	C389.982666,138.893066 388.498413,134.748566 386.996796,130.610367 
	C382.975983,119.529816 379.000214,108.432426 374.890228,97.385010 
	C373.669403,94.103432 369.358826,92.601212 365.657471,94.009750 
	C361.646118,95.536270 363.702393,98.312141 364.556458,100.632538 
	C371.161743,118.578957 377.938690,136.463074 384.409546,154.457428 
	C385.821198,158.383041 388.321747,159.292908 391.976105,159.416840 
	C395.754944,159.544998 397.673065,157.837982 398.933136,154.393860 
	C405.503448,136.435623 412.243317,118.539474 418.894592,100.610756 
	C420.948944,95.073212 419.440369,92.901466 413.636536,94.009674 
	C411.611389,94.396362 410.023804,97.074661 408.021820,99.447510 
M317.272247,150.292374 
	C318.979095,152.542389 320.211639,155.759872 322.477051,156.870468 
	C331.064117,161.080124 340.161194,161.376373 349.054779,157.730713 
	C356.130127,154.830368 359.947693,149.288589 360.367554,141.536591 
	C360.750732,134.461411 357.679749,129.337128 351.495789,126.115791 
	C347.969727,124.278992 344.264771,122.788773 340.676514,121.067169 
	C338.139679,119.850044 335.021576,119.053055 333.334442,117.071236 
	C331.519836,114.939743 329.940033,111.452850 330.368011,108.912903 
	C330.748779,106.653214 333.674316,104.088821 336.077515,103.053329 
	C341.372314,100.771927 346.464020,102.853943 351.291656,105.390091 
	C355.450958,107.575172 357.816193,106.297005 357.290344,101.732925 
	C357.064209,99.770576 355.579132,97.306053 353.917816,96.273575 
	C348.164062,92.697731 341.642761,92.173111 335.128601,93.504723 
	C325.614777,95.449516 320.294403,101.209396 319.489471,109.817039 
	C318.753601,117.686462 322.920471,123.897827 331.667633,127.880203 
	C335.897797,129.806091 340.231750,131.517181 344.388641,133.586777 
	C348.050690,135.410034 350.544342,138.211319 349.739319,142.726669 
	C348.917206,147.337784 345.668365,149.234863 341.412537,150.084595 
	C334.977600,151.369415 329.323547,149.547592 323.834656,146.302994 
	C319.501434,143.741531 318.474304,144.368698 317.272247,150.292374 
M125.781494,133.570068 
	C129.729492,135.628983 131.929062,138.670944 130.909805,143.287842 
	C129.888611,147.913559 126.348679,149.371323 122.153511,150.155960 
	C116.233192,151.263245 111.067261,149.485931 105.902740,146.835312 
	C104.132973,145.927002 101.772873,146.168915 99.682480,145.885315 
	C99.710701,148.563950 99.262711,151.374863 99.955429,153.868942 
	C100.337807,155.245697 102.497169,156.386154 104.091118,157.124161 
	C110.622818,160.148346 117.538696,160.869904 124.554054,159.483536 
	C135.056885,157.408005 140.789032,151.485046 141.751907,142.162949 
	C142.588959,134.059067 138.467499,128.324921 128.561401,123.866295 
	C124.473656,122.026443 120.299515,120.365959 116.283241,118.383629 
	C112.720779,116.625290 110.572540,113.740005 111.206543,109.544754 
	C111.875793,105.116219 115.005219,102.390816 119.068787,102.575996 
	C123.710823,102.787544 128.412064,104.140724 132.849915,105.682114 
	C137.005890,107.125603 139.200256,106.288658 138.686310,101.938774 
	C138.440567,99.859009 136.804169,97.278648 135.022751,96.168564 
	C129.431839,92.684608 123.054459,92.220993 116.704735,93.458847 
	C107.597229,95.234306 101.844521,100.973579 100.993576,108.592308 
	C99.999115,117.495979 103.723587,123.608322 112.812607,127.795403 
	C116.884644,129.671295 121.025757,131.397217 125.781494,133.570068 
M481.351868,102.206116 
	C484.491608,102.796059 487.631317,103.386002 491.050171,104.028389 
	C491.050171,106.068756 491.040222,108.054321 491.051880,110.039764 
	C491.114502,120.693413 490.841400,131.362778 491.331757,141.996841 
	C492.001678,156.523682 502.949402,163.770096 516.083069,158.937988 
	C520.161438,157.437515 520.771729,154.191452 519.822327,150.838974 
	C518.768494,147.117661 515.914795,149.108322 513.656250,149.766815 
	C506.916565,151.731796 502.550568,149.841034 502.302551,143.594040 
	C501.776306,130.340912 502.142029,117.052338 502.142029,103.318848 
	C506.584869,103.318848 510.719482,103.255791 514.851257,103.338364 
	C518.285706,103.407013 520.190369,102.157875 520.111267,98.409966 
	C520.036133,94.847321 518.100098,93.879478 514.940613,93.951599 
	C510.679871,94.048851 506.415222,93.975739 501.827789,93.975739 
	C501.827789,89.676376 501.736938,86.027290 501.852203,82.384727 
	C501.977814,78.413750 499.530609,77.709747 496.352142,77.689476 
	C493.039825,77.668350 490.905823,78.692955 491.087891,82.572365 
	C491.263672,86.318214 491.125916,90.078773 491.125916,93.776245 
	C479.955414,94.325249 479.440399,94.749069 481.351868,102.206116 
M250.043488,94.148033 
	C241.316132,91.290840 234.076248,93.419411 228.554947,101.030167 
	C228.192398,100.373405 227.916962,100.110565 227.929947,99.862839 
	C228.156815,95.534492 226.453568,93.384590 221.796494,93.671898 
	C217.058517,93.964211 217.345016,97.107773 217.350586,100.380394 
	C217.380585,118.007629 217.458939,135.635803 217.296097,153.261566 
	C217.257721,157.415344 218.477585,159.532547 222.877060,159.437210 
	C226.967072,159.348602 228.194763,157.411469 228.118362,153.450089 
	C227.903610,142.312469 228.012695,131.167892 228.053268,120.026253 
	C228.090546,109.788139 238.335312,101.829124 248.233612,104.062477 
	C249.601669,104.371147 252.431442,103.581123 252.609680,102.830696 
	C253.297394,99.935112 254.550842,96.514931 250.043488,94.148033 
M542.906616,108.515503 
	C542.906555,105.518890 542.742859,102.511108 542.946533,99.528412 
	C543.219666,95.528534 541.666260,93.712166 537.544250,93.681282 
	C533.471741,93.650764 532.013855,95.282700 532.048645,99.373985 
	C532.201660,117.352371 532.210693,135.333710 532.043091,153.311829 
	C532.003967,157.504105 533.249146,159.497772 537.658020,159.428406 
	C541.842285,159.362579 543.004578,157.368500 542.965332,153.459518 
	C542.818237,138.810883 542.906494,124.159874 542.906616,108.515503 
M530.044067,82.175484 
	C534.434448,88.177643 540.689270,88.623543 544.336792,83.194374 
	C546.795593,79.534546 546.565735,74.649071 543.508667,71.688965 
	C540.780945,69.047836 537.539917,68.131386 533.902771,69.949127 
	C529.848999,71.975052 528.449036,75.835754 530.044067,82.175484 
z"/>
<path fill="#365B9A" opacity="1.000000" stroke="none" 
	d="
M178.929749,159.158081 
	C174.089111,159.261337 169.523987,159.890900 165.232071,159.078049 
	C157.237106,157.563843 152.153595,151.681808 151.188614,144.159576 
	C150.149597,136.060165 153.508759,128.005142 160.919785,125.110558 
	C167.588882,122.505760 174.980438,121.701447 182.095047,120.317360 
	C184.153671,119.916878 186.356140,120.255898 188.388229,120.255898 
	C191.156189,106.022484 182.570358,98.978630 168.366455,103.440773 
	C165.534821,104.330322 162.978149,106.078857 160.159897,107.033264 
	C158.480118,107.602135 156.537689,107.395462 154.713333,107.537422 
	C154.601761,105.296913 154.408432,103.055267 154.439850,100.816765 
	C154.447128,100.299049 155.151306,99.704536 155.655518,99.293396 
	C162.710815,93.540352 182.493408,89.356438 192.791946,97.678757 
	C197.595413,101.560478 199.422867,106.889633 199.538849,112.674210 
	C199.822617,126.826256 199.695312,140.986145 199.808640,155.142288 
	C199.836349,158.603912 197.716904,159.386429 194.951004,159.355560 
	C192.318802,159.326187 189.796921,158.939270 189.979675,155.321136 
	C190.021255,154.497681 189.985779,153.670349 189.985779,153.242981 
	C186.434006,155.172821 182.881271,157.103165 178.929749,159.158081 
M186.378281,129.648102 
	C183.721436,129.658813 181.030777,129.407181 178.415955,129.744064 
	C174.841843,130.204544 171.138824,130.639450 167.829636,131.944107 
	C163.289459,133.734070 161.522003,137.738327 162.208405,142.498016 
	C162.885941,147.196289 165.958435,149.587173 170.587387,150.351837 
	C176.671219,151.356873 184.959747,147.770645 188.362869,142.457413 
	C189.841492,140.148865 189.180878,131.842224 186.378281,129.648102 
z"/>
<path fill="#34599A" opacity="1.000000" stroke="none" 
	d="
M440.517242,159.847107 
	C424.517487,155.874786 418.474823,141.069565 427.853729,129.445496 
	C432.426544,123.777985 439.064331,121.860680 445.958130,121.019951 
	C451.052429,120.398666 456.204559,120.251747 461.298737,119.895729 
	C463.518860,105.953926 454.925690,99.016113 440.935089,103.451553 
	C438.104614,104.348900 435.539307,106.058220 432.737457,107.079750 
	C431.164642,107.653183 428.170135,108.228096 427.876282,107.685905 
	C426.950073,105.976738 426.592957,103.694176 426.816254,101.724266 
	C426.954865,100.501114 428.319000,99.030426 429.518036,98.374672 
	C439.609589,92.855553 450.232635,90.951485 461.210663,95.236168 
	C468.759979,98.182632 471.864655,104.608467 472.012695,112.308327 
	C472.281769,126.302361 472.138092,140.303909 472.297028,154.300827 
	C472.330566,157.252258 471.660797,159.210037 468.348480,159.333221 
	C465.287384,159.447037 462.552856,159.134460 462.431091,155.110855 
	C462.416626,154.633286 462.198883,154.161865 461.924988,153.110199 
	C455.899323,158.856049 448.825378,160.739716 440.517242,159.847107 
M441.228302,131.337570 
	C435.422913,134.843063 433.398010,139.286972 435.241882,144.475418 
	C436.784607,148.816406 442.123749,151.743576 447.593475,150.418823 
	C458.574127,147.759308 464.521240,142.654419 460.928314,129.099472 
	C454.713287,129.741058 448.350952,130.397842 441.228302,131.337570 
z"/>
<path fill="#355A9A" opacity="1.000000" stroke="none" 
	d="
M272.329834,122.249596 
	C279.624054,121.269295 286.535309,120.413712 293.586517,119.540802 
	C296.483246,108.857361 290.793457,101.371094 279.644135,102.548470 
	C274.999817,103.038918 270.528870,105.299347 266.017426,106.865456 
	C263.780640,107.641930 261.217377,110.080399 259.560547,106.787537 
	C258.048615,103.782677 258.585815,100.405830 261.855988,98.483688 
	C269.723633,93.859238 278.289551,92.037590 287.311768,93.390594 
	C298.686890,95.096443 304.542267,101.701408 304.806824,113.460068 
	C305.110260,126.948105 304.866180,140.447708 304.994293,153.941010 
	C305.023743,157.038788 304.416077,159.201218 300.833557,159.351868 
	C297.404297,159.496063 294.812927,158.715347 294.998322,154.509811 
	C295.016388,154.099579 294.770264,153.677689 294.550537,152.936615 
	C287.448090,159.939346 279.121368,161.396790 269.997742,159.104309 
	C262.144104,157.130936 257.190094,151.580353 256.429321,143.711273 
	C255.659058,135.743973 258.527679,129.319962 265.561768,125.150421 
	C267.542633,123.976250 269.810608,123.286346 272.329834,122.249596 
M283.616089,129.675018 
	C279.513062,130.738480 275.135712,131.229019 271.383667,133.025528 
	C267.582611,134.845520 266.785950,138.909531 267.510986,142.969849 
	C268.231293,147.003632 270.839355,149.255753 274.775665,150.176743 
	C287.212128,153.086502 296.708496,142.846329 293.380920,129.609604 
	C290.511475,129.609604 287.542999,129.609604 283.616089,129.675018 
z"/>
<path fill="#345999" opacity="1.000000" stroke="none" 
	d="
M408.129089,99.076965 
	C410.023804,97.074661 411.611389,94.396362 413.636536,94.009674 
	C419.440369,92.901466 420.948944,95.073212 418.894592,100.610756 
	C412.243317,118.539474 405.503448,136.435623 398.933136,154.393860 
	C397.673065,157.837982 395.754944,159.544998 391.976105,159.416840 
	C388.321747,159.292908 385.821198,158.383041 384.409546,154.457428 
	C377.938690,136.463074 371.161743,118.578957 364.556458,100.632538 
	C363.702393,98.312141 361.646118,95.536270 365.657471,94.009750 
	C369.358826,92.601212 373.669403,94.103432 374.890228,97.385010 
	C379.000214,108.432426 382.975983,119.529816 386.996796,130.610367 
	C388.498413,134.748566 389.982666,138.893066 391.995972,144.481125 
	C397.648407,128.597397 402.835114,114.022453 408.129089,99.076965 
z"/>
<path fill="#34599A" opacity="1.000000" stroke="none" 
	d="
M317.238373,149.905243 
	C318.474304,144.368698 319.501434,143.741531 323.834656,146.302994 
	C329.323547,149.547592 334.977600,151.369415 341.412537,150.084595 
	C345.668365,149.234863 348.917206,147.337784 349.739319,142.726669 
	C350.544342,138.211319 348.050690,135.410034 344.388641,133.586777 
	C340.231750,131.517181 335.897797,129.806091 331.667633,127.880203 
	C322.920471,123.897827 318.753601,117.686462 319.489471,109.817039 
	C320.294403,101.209396 325.614777,95.449516 335.128601,93.504723 
	C341.642761,92.173111 348.164062,92.697731 353.917816,96.273575 
	C355.579132,97.306053 357.064209,99.770576 357.290344,101.732925 
	C357.816193,106.297005 355.450958,107.575172 351.291656,105.390091 
	C346.464020,102.853943 341.372314,100.771927 336.077515,103.053329 
	C333.674316,104.088821 330.748779,106.653214 330.368011,108.912903 
	C329.940033,111.452850 331.519836,114.939743 333.334442,117.071236 
	C335.021576,119.053055 338.139679,119.850044 340.676514,121.067169 
	C344.264771,122.788773 347.969727,124.278992 351.495789,126.115791 
	C357.679749,129.337128 360.750732,134.461411 360.367554,141.536591 
	C359.947693,149.288589 356.130127,154.830368 349.054779,157.730713 
	C340.161194,161.376373 331.064117,161.080124 322.477051,156.870468 
	C320.211639,155.759872 318.979095,152.542389 317.238373,149.905243 
z"/>
<path fill="#355A9A" opacity="1.000000" stroke="none" 
	d="
M125.458511,133.380630 
	C121.025757,131.397217 116.884644,129.671295 112.812607,127.795403 
	C103.723587,123.608322 99.999115,117.495979 100.993576,108.592308 
	C101.844521,100.973579 107.597229,95.234306 116.704735,93.458847 
	C123.054459,92.220993 129.431839,92.684608 135.022751,96.168564 
	C136.804169,97.278648 138.440567,99.859009 138.686310,101.938774 
	C139.200256,106.288658 137.005890,107.125603 132.849915,105.682114 
	C128.412064,104.140724 123.710823,102.787544 119.068787,102.575996 
	C115.005219,102.390816 111.875793,105.116219 111.206543,109.544754 
	C110.572540,113.740005 112.720779,116.625290 116.283241,118.383629 
	C120.299515,120.365959 124.473656,122.026443 128.561401,123.866295 
	C138.467499,128.324921 142.588959,134.059067 141.751907,142.162949 
	C140.789032,151.485046 135.056885,157.408005 124.554054,159.483536 
	C117.538696,160.869904 110.622818,160.148346 104.091118,157.124161 
	C102.497169,156.386154 100.337807,155.245697 99.955429,153.868942 
	C99.262711,151.374863 99.710701,148.563950 99.682480,145.885315 
	C101.772873,146.168915 104.132973,145.927002 105.902740,146.835312 
	C111.067261,149.485931 116.233192,151.263245 122.153511,150.155960 
	C126.348679,149.371323 129.888611,147.913559 130.909805,143.287842 
	C131.929062,138.670944 129.729492,135.628983 125.458511,133.380630 
z"/>
<path fill="#355A9A" opacity="1.000000" stroke="none" 
	d="
M481.151672,101.865326 
	C479.440399,94.749069 479.955414,94.325249 491.125916,93.776245 
	C491.125916,90.078773 491.263672,86.318214 491.087891,82.572365 
	C490.905823,78.692955 493.039825,77.668350 496.352142,77.689476 
	C499.530609,77.709747 501.977814,78.413750 501.852203,82.384727 
	C501.736938,86.027290 501.827789,89.676376 501.827789,93.975739 
	C506.415222,93.975739 510.679871,94.048851 514.940613,93.951599 
	C518.100098,93.879478 520.036133,94.847321 520.111267,98.409966 
	C520.190369,102.157875 518.285706,103.407013 514.851257,103.338364 
	C510.719482,103.255791 506.584869,103.318848 502.142029,103.318848 
	C502.142029,117.052338 501.776306,130.340912 502.302551,143.594040 
	C502.550568,149.841034 506.916565,151.731796 513.656250,149.766815 
	C515.914795,149.108322 518.768494,147.117661 519.822327,150.838974 
	C520.771729,154.191452 520.161438,157.437515 516.083069,158.937988 
	C502.949402,163.770096 492.001678,156.523682 491.331757,141.996841 
	C490.841400,131.362778 491.114502,120.693413 491.051880,110.039764 
	C491.040222,108.054321 491.050171,106.068756 491.050171,104.028389 
	C487.631317,103.386002 484.491608,102.796059 481.151672,101.865326 
z"/>
<path fill="#375C9B" opacity="1.000000" stroke="none" 
	d="
M250.400604,94.310501 
	C254.550842,96.514931 253.297394,99.935112 252.609680,102.830696 
	C252.431442,103.581123 249.601669,104.371147 248.233612,104.062477 
	C238.335312,101.829124 228.090546,109.788139 228.053268,120.026253 
	C228.012695,131.167892 227.903610,142.312469 228.118362,153.450089 
	C228.194763,157.411469 226.967072,159.348602 222.877060,159.437210 
	C218.477585,159.532547 217.257721,157.415344 217.296097,153.261566 
	C217.458939,135.635803 217.380585,118.007629 217.350586,100.380394 
	C217.345016,97.107773 217.058517,93.964211 221.796494,93.671898 
	C226.453568,93.384590 228.156815,95.534492 227.929947,99.862839 
	C227.916962,100.110565 228.192398,100.373405 228.554947,101.030167 
	C234.076248,93.419411 241.316132,91.290840 250.400604,94.310501 
z"/>
<path fill="#375C9B" opacity="1.000000" stroke="none" 
	d="
M542.906616,109.012627 
	C542.906494,124.159874 542.818237,138.810883 542.965332,153.459518 
	C543.004578,157.368500 541.842285,159.362579 537.658020,159.428406 
	C533.249146,159.497772 532.003967,157.504105 532.043091,153.311829 
	C532.210693,135.333710 532.201660,117.352371 532.048645,99.373985 
	C532.013855,95.282700 533.471741,93.650764 537.544250,93.681282 
	C541.666260,93.712166 543.219666,95.528534 542.946533,99.528412 
	C542.742859,102.511108 542.906555,105.518890 542.906616,109.012627 
z"/>
<path fill="#C20808" opacity="1.000000" stroke="none" 
	d="
M529.889587,81.817352 
	C528.449036,75.835754 529.848999,71.975052 533.902771,69.949127 
	C537.539917,68.131386 540.780945,69.047836 543.508667,71.688965 
	C546.565735,74.649071 546.795593,79.534546 544.336792,83.194374 
	C540.689270,88.623543 534.434448,88.177643 529.889587,81.817352 
z"/>
<path fill="#FCFDFE" opacity="1.000000" stroke="none" 
	d="
M186.863403,129.675613 
	C189.180878,131.842224 189.841492,140.148865 188.362869,142.457413 
	C184.959747,147.770645 176.671219,151.356873 170.587387,150.351837 
	C165.958435,149.587173 162.885941,147.196289 162.208405,142.498016 
	C161.522003,137.738327 163.289459,133.734070 167.829636,131.944107 
	C171.138824,130.639450 174.841843,130.204544 178.415955,129.744064 
	C181.030777,129.407181 183.721436,129.658813 186.863403,129.675613 
z"/>
<path fill="#FBFCFD" opacity="1.000000" stroke="none" 
	d="
M441.608459,131.196106 
	C448.350952,130.397842 454.713287,129.741058 460.928314,129.099472 
	C464.521240,142.654419 458.574127,147.759308 447.593475,150.418823 
	C442.123749,151.743576 436.784607,148.816406 435.241882,144.475418 
	C433.398010,139.286972 435.422913,134.843063 441.608459,131.196106 
z"/>
<path fill="#FBFCFD" opacity="1.000000" stroke="none" 
	d="
M284.095306,129.642303 
	C287.542999,129.609604 290.511475,129.609604 293.380920,129.609604 
	C296.708496,142.846329 287.212128,153.086502 274.775665,150.176743 
	C270.839355,149.255753 268.231293,147.003632 267.510986,142.969849 
	C266.785950,138.909531 267.582611,134.845520 271.383667,133.025528 
	C275.135712,131.229019 279.513062,130.738480 284.095306,129.642303 
z"/>
</svg>